HIERARCHY
ROOT Hip
{
	OFFSET 0 1.131 0.0052
	CHANNELS 6 Xposition Yposition Zposition Xrotation Yrotation Zrotation
	JOINT Abdomen
	{
		OFFSET 0 -0.047353 -0.05
		CHANNELS 3 Xrotation Zrotation Yrotation
		JOINT Chest
		{
			OFFSET 0 0.132153 0.007439
			CHANNELS 3 Xrotation Zrotation Yrotation
			JOINT Neck
			{
				OFFSET 0 0.3078 0.006161
				CHANNELS 3 Xrotation Zrotation Yrotation
				JOINT Head_comp
				{
					OFFSET 0 0.0884 0.013
					CHANNELS 3 Xrotation Yrotation Zrotation
					End Site
					{
						OFFSET -0 0.156 0.0624
					}
				}
			}
			JOINT Left_Collar
			{
				OFFSET 0.02282 0.250342 0.017193
				CHANNELS 2 Yrotation Zrotation
				JOINT Left_Shoulder
				{
					OFFSET 0.15421 0 0
					CHANNELS 3 Xrotation Yrotation Zrotation
					JOINT Left_Forearm
					{
						OFFSET 0.265212 0 0
						CHANNELS 2 Yrotation Xrotation
						JOINT Left_Hand
						{
							OFFSET 0.27571 0 0
							CHANNELS 2 Zrotation Yrotation
							JOINT L1ProxPhalanx
							{
								OFFSET 0.014142 0.001733 0.014142
								CHANNELS 3 Yrotation Zrotation Xrotation
								JOINT L1MidPhalanx
								{
									OFFSET 0.04 0 0
									CHANNELS 1 Zrotation
									JOINT L1DistPhalanx
									{
										OFFSET 0.035 0 0
										CHANNELS 1 Zrotation
										End Site
										{
											OFFSET 0.029 -0 -0
										}
									}
								}
							}
							JOINT L2ProxPhalanx
							{
								OFFSET 0.0821037 0.001578 0.0219996
								CHANNELS 2 Yrotation Zrotation
								JOINT L2MidPhalanx
								{
									OFFSET 0.04 0 0
									CHANNELS 1 Zrotation
									JOINT L2DistPhalanx
									{
										OFFSET 0.028 0 0
										CHANNELS 1 Zrotation
										End Site
										{
											OFFSET 0.02 -0 -0
										}
									}
								}
							}
							JOINT L3ProxPhalanx
							{
								OFFSET 0.083 0 0
								CHANNELS 2 Yrotation Zrotation
								JOINT L3MidPhalanx
								{
									OFFSET 0.053 0 0
									CHANNELS 1 Zrotation
									JOINT L3DistPhalanx
									{
										OFFSET 0.03 0 0
										CHANNELS 1 Zrotation
										End Site
										{
											OFFSET 0.023 -0 -0
										}
									}
								}
							}
							JOINT L4ProxPhalanx
							{
								OFFSET 0.077274 -0.000761 -0.0207055
								CHANNELS 2 Yrotation Zrotation
								JOINT L4MidPhalanx
								{
									OFFSET 0.05 0 0
									CHANNELS 1 Zrotation
									JOINT L4DistPhalanx
									{
										OFFSET 0.03 0 0
										CHANNELS 1 Zrotation
										End Site
										{
											OFFSET 0.023 -0 -0
										}
									}
								}
							}
							JOINT L5ProxPhalanx
							{
								OFFSET 0.0675499 -0.001644 -0.039
								CHANNELS 2 Yrotation Zrotation
								JOINT L5MidPhalanx
								{
									OFFSET 0.04 0 0
									CHANNELS 1 Zrotation
									JOINT L5DistPhalanx
									{
										OFFSET 0.021 0 0
										CHANNELS 1 Zrotation
										End Site
										{
											OFFSET 0.022 -0 -0
										}
									}
								}
							}
						}
					}
				}
			}
			JOINT Right_Collar
			{
				OFFSET -0.02282 0.250342 0.017193
				CHANNELS 2 Yrotation Zrotation
				JOINT Right_Shoulder
				{
					OFFSET -0.15421 0 0
					CHANNELS 3 Xrotation Yrotation Zrotation
					JOINT Right_Forearm
					{
						OFFSET -0.265212 0 0
						CHANNELS 2 Yrotation Xrotation
						JOINT Right_Hand
						{
							OFFSET -0.27571 3e-006 0
							CHANNELS 2 Zrotation Yrotation
							JOINT R1ProxPhalanx
							{
								OFFSET -0.014142 0.001733 0.014142
								CHANNELS 3 Yrotation Zrotation Xrotation
								JOINT R1MidPhalanx
								{
									OFFSET -0.04 0 0
									CHANNELS 1 Zrotation
									JOINT R1DistPhalanx
									{
										OFFSET -0.035 0 0
										CHANNELS 1 Zrotation
										End Site
										{
											OFFSET -0.029 -0 -0
										}
									}
								}
							}
							JOINT R2ProxPhalanx
							{
								OFFSET -0.0821037 0.001578 0.0219996
								CHANNELS 2 Yrotation Zrotation
								JOINT R2MidPhalanx
								{
									OFFSET -0.04 0 0
									CHANNELS 1 Zrotation
									JOINT R2DistPhalanx
									{
										OFFSET -0.028 0 0
										CHANNELS 1 Zrotation
										End Site
										{
											OFFSET -0.02 -0 -0
										}
									}
								}
							}
							JOINT R3ProxPhalanx
							{
								OFFSET -0.083 0 0
								CHANNELS 2 Yrotation Zrotation
								JOINT R3MidPhalanx
								{
									OFFSET -0.053 0 0
									CHANNELS 1 Zrotation
									JOINT R3DistPhalanx
									{
										OFFSET -0.03 0 0
										CHANNELS 1 Zrotation
										End Site
										{
											OFFSET -0.023 -0 -0
										}
									}
								}
							}
							JOINT R4ProxPhalanx
							{
								OFFSET -0.077274 -0.000761 -0.0207055
								CHANNELS 2 Yrotation Zrotation
								JOINT R4MidPhalanx
								{
									OFFSET -0.05 0 0
									CHANNELS 1 Zrotation
									JOINT R4DistPhalanx
									{
										OFFSET -0.03 0 0
										CHANNELS 1 Zrotation
										End Site
										{
											OFFSET -0.023 -0 -0
										}
									}
								}
							}
							JOINT R5ProxPhalanx
							{
								OFFSET -0.0675499 -0.001644 -0.039
								CHANNELS 2 Yrotation Zrotation
								JOINT R5MidPhalanx
								{
									OFFSET -0.04 0 0
									CHANNELS 1 Zrotation
									JOINT R5DistPhalanx
									{
										OFFSET -0.021 0 0
										CHANNELS 1 Zrotation
										End Site
										{
											OFFSET -0.022 -0 -0
										}
									}
								}
							}
						}
					}
				}
			}
		}
	}
	JOINT Left_Thigh
	{
		OFFSET 0.1118 -0.1612 -0.0442
		CHANNELS 3 Xrotation Zrotation Yrotation
		JOINT Left_Shin
		{
			OFFSET 0 -0.477856 0
			CHANNELS 1 Xrotation
			JOINT Left_Foot
			{
				OFFSET 0 -0.431952 0
				CHANNELS 2 Xrotation Zrotation
				JOINT Left_Toe
				{
					OFFSET 0 -0.0442 0.119
					CHANNELS 1 Xrotation
					End Site
					{
						OFFSET -0 -0 0.07
					}
				}
			}
		}
	}
	JOINT Right_Thigh
	{
		OFFSET -0.1118 -0.1612 -0.0442
		CHANNELS 3 Xrotation Zrotation Yrotation
		JOINT Right_Shin
		{
			OFFSET 0 -0.477856 0
			CHANNELS 1 Xrotation
			JOINT Right_Foot
			{
				OFFSET 0 -0.431952 0
				CHANNELS 2 Xrotation Zrotation
				JOINT Right_Toe
				{
					OFFSET 0 -0.0442 0.119
					CHANNELS 1 Xrotation
					End Site
					{
						OFFSET -0 -0 0.07
					}
				}
			}
		}
	}
}
MOTION
Frames: 15
Frame Time: 0.00998571
-0.102415 -0.0616813 0.0424664 1.47242e-014 0.687132 0.0769577 0 0 0 0 0 0 0 0 0 0 0 0 0 0 -0 0 -0 0 0 0 0 -36.7832 -29.9624 77.4898 -4.76427 -12.2444 -6.63439 -16.4575 -31.3511 -13.5114 -0.647911 -24.507 -18.2419 -18.0941 9.02909 -22.0218 -38.2405 -19.3412 17.3445 -18.4185 -40.523 -37.4487 0 0 -0 0 -0 0 0 0 0 37.9386 28.008 73.698 26.2405 28.4472 13.118 18.2167 29.0248 19.6359 0 22.4358 32.6146 28.1246 -8.63175 30.7051 32.2053 23.7634 -7.83088 26.7354 35.1526 30.0193 -2.97821 -0.683522 -0.652466 6.57024 -3.58517 0.571701 0 -3.09875 -0.686107 -0.650961 7.18075 -4.07513 0.572917 0 
-0.102415 -0.0616813 0.0424664 1.47242e-014 0.687132 0.0769577 0 0 0 0 0 0 0 0 0 0 0 0 0 0 -0 0 -0 0 0 0 0 -36.7832 -29.9624 77.4898 -4.76427 -12.2444 -6.63439 -16.4575 -31.3511 -13.5114 -0.647911 -24.507 -18.2419 -18.0941 9.02909 -22.0218 -38.2405 -19.3412 17.3445 -18.4185 -40.523 -37.4487 0 0 -0 0 -0 0 0 0 0 37.9386 28.008 73.698 26.2405 28.4472 13.118 18.2167 29.0248 19.6359 0 22.4358 32.6146 28.1246 -8.63175 30.7051 32.2053 23.7634 -7.83088 26.7354 35.1526 30.0193 -2.97821 -0.683522 -0.652466 6.57024 -3.58517 0.571701 0 -3.09875 -0.686107 -0.650961 7.18075 -4.07513 0.572917 0 
-0.101556 -0.0619548 0.0612551 -9.16487e-008 -0.100867 0.0363375 -1.28115 -0.0937345 -0.0285969 -1.28115 0.0382662 -0.0277079 -1.28115 0.0459192 -0.0277076 0.696557 0.366337 0.0382717 0.0292563 -3.35857 29.0642 -13.54 -70.3525 -80.0013 0.0516935 0.0224823 -0.000470329 -36.8362 -29.9473 77.4945 -4.85066 -12.2666 -6.61836 -16.4962 -31.3758 -13.5157 -0.646063 -24.5284 -18.304 -18.0938 9.00763 -22.0503 -38.2455 -19.3373 17.3121 -18.4344 -40.5044 -37.3988 0.0247236 4.27077 29.5334 12.8749 69.492 80.6986 0.0458631 -0.0137598 -0.000956323 37.9875 27.9971 73.7147 26.2655 28.423 13.0835 18.2503 29.0562 19.6226 0 22.4631 32.6357 28.0956 -8.61138 30.7088 32.2275 23.747 -7.82565 26.7276 35.1493 29.9907 -1.76385 -0.690705 0.122208 6.69641 -4.93384 0.657806 0 -1.93984 -0.690453 0.124336 7.01529 -5.07675 0.657934 0 
-0.101456 -0.0619744 0.06185 -2.23481e-013 -0.101176 0.0363825 -1.28482 -0.0939449 -0.0286957 -1.28482 0.0383749 -0.0277885 -1.28482 0.0460499 -0.0277885 0.698257 0.365349 0.0383749 0.0293401 -3.3682 30.4231 -11.7291 -67.8286 -82.3609 0.0518166 0.0225467 -0.000471676 -36.7832 -29.9624 77.4898 -4.76427 -12.2444 -6.63439 -16.4575 -31.3511 -13.5114 -0.647911 -24.507 -18.2419 -18.0941 9.02909 -22.0218 -38.2405 -19.3412 17.3445 -18.4185 -40.523 -37.4487 0.0247944 4.28301 30.8453 11.0258 66.9811 83.0419 0.045972 -0.0137992 -0.000959063 37.9386 28.008 73.698 26.2405 28.4472 13.118 18.2167 29.0248 19.6359 0 22.4358 32.6146 28.1246 -8.63175 30.7051 32.2053 23.7634 -7.83088 26.7354 35.1526 30.0193 -1.7354 -0.697131 0.122336 6.7156 -4.9815 0.664133 0 -1.91189 -0.69688 0.124487 7.03539 -5.12481 0.664262 0 
-0.101455 -0.0619756 0.0618959 2.3382e-013 -0.101178 0.0363774 -1.28482 -0.0939398 -0.0286974 -1.28482 0.0383749 -0.0277885 -1.28482 0.0460499 -0.0277885 0.698217 0.365316 0.0383749 0.0293401 -3.3682 30.4284 -11.7211 -67.8181 -82.3701 0.0518166 0.0225467 -0.000471676 -36.7832 -29.9624 77.4898 -4.76427 -12.2444 -6.63439 -16.4575 -31.3511 -13.5114 -0.647911 -24.507 -18.2419 -18.0941 9.02909 -22.0218 -38.2405 -19.3412 17.3445 -18.4185 -40.523 -37.4487 0.0247944 4.28301 30.8503 11.0177 66.9707 83.051 0.045972 -0.0137992 -0.000959063 37.9386 28.008 73.698 26.2405 28.4472 13.118 18.2167 29.0248 19.6359 0 22.4358 32.6146 28.1246 -8.63175 30.7051 32.2053 23.7634 -7.83088 26.7354 35.1526 30.0193 -1.7325 -0.697193 0.122305 6.7156 -4.98439 0.664193 0 -1.90899 -0.696942 0.124456 7.03539 -5.12771 0.664322 0 
-0.101455 -0.0619756 0.0618965 2.36309e-013 -0.101178 0.0363774 -1.28482 -0.0939397 -0.0286974 -1.28482 0.0383749 -0.0277885 -1.28482 0.0460499 -0.0277885 0.698215 0.365316 0.0383749 0.0293401 -3.3682 30.4284 -11.7211 -67.8181 -82.3701 0.0518166 0.0225467 -0.000471676 -36.7832 -29.9624 77.4898 -4.76427 -12.2444 -6.63439 -16.4575 -31.3511 -13.5114 -0.647911 -24.507 -18.2419 -18.0941 9.02909 -22.0218 -38.2405 -19.3412 17.3445 -18.4185 -40.523 -37.4487 0.0247944 4.28301 30.8503 11.0177 66.9707 83.051 0.045972 -0.0137992 -0.000959063 37.9386 28.008 73.698 26.2405 28.4472 13.118 18.2167 29.0248 19.6359 0 22.4358 32.6146 28.1246 -8.63175 30.7051 32.2053 23.7634 -7.83088 26.7354 35.1526 30.0193 -1.73246 -0.697194 0.122304 6.7156 -4.98443 0.664194 0 -1.90895 -0.696942 0.124455 7.03539 -5.12775 0.664323 0 
-0.101455 -0.0619756 0.0618965 1.33073e-013 -0.101178 0.0363773 -1.28482 -0.0939397 -0.0286974 -1.28482 0.0383749 -0.0277885 -1.28482 0.0460499 -0.0277885 0.698215 0.365316 0.0383749 0.0293401 -3.3682 30.4284 -11.7211 -67.8181 -82.3701 0.0518166 0.0225467 -0.000471676 -36.7832 -29.9624 77.4898 -4.76427 -12.2444 -6.63439 -16.4575 -31.3511 -13.5114 -0.647911 -24.507 -18.2419 -18.0941 9.02909 -22.0218 -38.2405 -19.3412 17.3445 -18.4185 -40.523 -37.4487 0.0247944 4.28301 30.8503 11.0177 66.9707 83.051 0.045972 -0.0137992 -0.000959063 37.9386 28.008 73.698 26.2405 28.4472 13.118 18.2167 29.0248 19.6359 0 22.4358 32.6146 28.1246 -8.63175 30.7051 32.2053 23.7634 -7.83088 26.7354 35.1526 30.0193 -1.73246 -0.697194 0.122304 6.7156 -4.98443 0.664194 0 -1.90895 -0.696942 0.124455 7.03539 -5.12775 0.664323 0 
-0.101455 -0.0619756 0.0618965 3.94344e-013 -0.101178 0.0363773 -1.28482 -0.0939397 -0.0286974 -1.28482 0.0383749 -0.0277885 -1.28482 0.0460499 -0.0277885 0.698215 0.365316 0.0383749 0.0293401 -3.3682 30.4284 -11.7211 -67.8181 -82.3701 0.0518166 0.0225467 -0.000471676 -36.7832 -29.9624 77.4898 -4.76427 -12.2444 -6.63439 -16.4575 -31.3511 -13.5114 -0.647911 -24.507 -18.2419 -18.0941 9.02909 -22.0218 -38.2405 -19.3412 17.3445 -18.4185 -40.523 -37.4487 0.0247944 4.28301 30.8503 11.0177 66.9707 83.051 0.045972 -0.0137992 -0.000959063 37.9386 28.008 73.698 26.2405 28.4472 13.118 18.2167 29.0248 19.6359 0 22.4358 32.6146 28.1246 -8.63175 30.7051 32.2053 23.7634 -7.83088 26.7354 35.1526 30.0193 -1.73246 -0.697194 0.122304 6.7156 -4.98444 0.664194 0 -1.90895 -0.696942 0.124455 7.03539 -5.12775 0.664323 0 
-0.101455 -0.0619756 0.0618965 5.01882e-013 -0.101178 0.0363773 -1.28482 -0.0939397 -0.0286974 -1.28482 0.0383749 -0.0277885 -1.28482 0.0460499 -0.0277885 0.698215 0.365316 0.0383749 0.0293401 -3.3682 30.4284 -11.7211 -67.8181 -82.3701 0.0518166 0.0225467 -0.000471676 -36.7832 -29.9624 77.4898 -4.76427 -12.2444 -6.63439 -16.4575 -31.3511 -13.5114 -0.647911 -24.507 -18.2419 -18.0941 9.02909 -22.0218 -38.2405 -19.3412 17.3445 -18.4185 -40.523 -37.4487 0.0247944 4.28301 30.8503 11.0177 66.9707 83.051 0.045972 -0.0137992 -0.000959063 37.9386 28.008 73.698 26.2405 28.4472 13.118 18.2167 29.0248 19.6359 0 22.4358 32.6146 28.1246 -8.63175 30.7051 32.2053 23.7634 -7.83088 26.7354 35.1526 30.0193 -1.73246 -0.697194 0.122304 6.7156 -4.98444 0.664194 0 -1.90895 -0.696942 0.124455 7.03539 -5.12775 0.664323 0 
-0.101455 -0.0619756 0.0618965 5.03056e-013 -0.101178 0.0363773 -1.28482 -0.0939397 -0.0286974 -1.28482 0.0383749 -0.0277885 -1.28482 0.0460499 -0.0277885 0.698215 0.365316 0.0383749 0.0293401 -3.3682 30.4284 -11.7211 -67.8181 -82.3701 0.0518166 0.0225467 -0.000471676 -36.7832 -29.9624 77.4898 -4.76427 -12.2444 -6.63439 -16.4575 -31.3511 -13.5114 -0.647911 -24.507 -18.2419 -18.0941 9.02909 -22.0218 -38.2405 -19.3412 17.3445 -18.4185 -40.523 -37.4487 0.0247944 4.28301 30.8503 11.0177 66.9707 83.051 0.045972 -0.0137992 -0.000959063 37.9386 28.008 73.698 26.2405 28.4472 13.118 18.2167 29.0248 19.6359 0 22.4358 32.6146 28.1246 -8.63175 30.7051 32.2053 23.7634 -7.83088 26.7354 35.1526 30.0193 -1.73246 -0.697194 0.122304 6.7156 -4.98444 0.664194 0 -1.90895 -0.696942 0.124455 7.03539 -5.12775 0.664323 0 
-0.101455 -0.0619756 0.0618965 5.03056e-013 -0.101178 0.0363773 -1.28482 -0.0939397 -0.0286974 -1.28482 0.0383749 -0.0277885 -1.28482 0.0460499 -0.0277885 0.698215 0.365316 0.0383749 0.0293401 -3.3682 30.4284 -11.7211 -67.8181 -82.3701 0.0518166 0.0225467 -0.000471676 -36.7832 -29.9624 77.4898 -4.76427 -12.2444 -6.63439 -16.4575 -31.3511 -13.5114 -0.647911 -24.507 -18.2419 -18.0941 9.02909 -22.0218 -38.2405 -19.3412 17.3445 -18.4185 -40.523 -37.4487 0.0247944 4.28301 30.8503 11.0177 66.9707 83.051 0.045972 -0.0137992 -0.000959063 37.9386 28.008 73.698 26.2405 28.4472 13.118 18.2167 29.0248 19.6359 0 22.4358 32.6146 28.1246 -8.63175 30.7051 32.2053 23.7634 -7.83088 26.7354 35.1526 30.0193 -1.73246 -0.697194 0.122304 6.7156 -4.98444 0.664194 0 -1.90895 -0.696942 0.124455 7.03539 -5.12775 0.664323 0 
-0.101455 -0.0619756 0.0618965 5.03056e-013 -0.101178 0.0363773 -1.28482 -0.0939397 -0.0286974 -1.28482 0.0383749 -0.0277885 -1.28482 0.0460499 -0.0277885 0.698215 0.365316 0.0383749 0.0293401 -3.3682 30.4284 -11.7211 -67.8181 -82.3701 0.0518166 0.0225467 -0.000471676 -36.7832 -29.9624 77.4898 -4.76427 -12.2444 -6.63439 -16.4575 -31.3511 -13.5114 -0.647911 -24.507 -18.2419 -18.0941 9.02909 -22.0218 -38.2405 -19.3412 17.3445 -18.4185 -40.523 -37.4487 0.0247944 4.28301 30.8503 11.0177 66.9707 83.051 0.045972 -0.0137992 -0.000959063 37.9386 28.008 73.698 26.2405 28.4472 13.118 18.2167 29.0248 19.6359 0 22.4358 32.6146 28.1246 -8.63175 30.7051 32.2053 23.7634 -7.83088 26.7354 35.1526 30.0193 -1.73246 -0.697194 0.122304 6.7156 -4.98444 0.664194 0 -1.90895 -0.696942 0.124455 7.03539 -5.12775 0.664323 0 
-0.101455 -0.0619756 0.0618965 5.03056e-013 -0.101178 0.0363773 -1.28482 -0.0939397 -0.0286974 -1.28482 0.0383749 -0.0277885 -1.28482 0.0460499 -0.0277885 0.698215 0.365316 0.0383749 0.0293401 -3.3682 30.4284 -11.7211 -67.8181 -82.3701 0.0518166 0.0225467 -0.000471676 -36.7832 -29.9624 77.4898 -4.76427 -12.2444 -6.63439 -16.4575 -31.3511 -13.5114 -0.647911 -24.507 -18.2419 -18.0941 9.02909 -22.0218 -38.2405 -19.3412 17.3445 -18.4185 -40.523 -37.4487 0.0247944 4.28301 30.8503 11.0177 66.9707 83.051 0.045972 -0.0137992 -0.000959063 37.9386 28.008 73.698 26.2405 28.4472 13.118 18.2167 29.0248 19.6359 0 22.4358 32.6146 28.1246 -8.63175 30.7051 32.2053 23.7634 -7.83088 26.7354 35.1526 30.0193 -1.73246 -0.697194 0.122304 6.7156 -4.98444 0.664194 0 -1.90895 -0.696942 0.124455 7.03539 -5.12775 0.664323 0 
-0.101455 -0.0619756 0.0618965 5.03056e-013 -0.101178 0.0363773 -1.28482 -0.0939397 -0.0286974 -1.28482 0.0383749 -0.0277885 -1.28482 0.0460499 -0.0277885 0.698215 0.365316 0.0383749 0.0293401 -3.3682 30.4284 -11.7211 -67.8181 -82.3701 0.0518166 0.0225467 -0.000471676 -36.7832 -29.9624 77.4898 -4.76427 -12.2444 -6.63439 -16.4575 -31.3511 -13.5114 -0.647911 -24.507 -18.2419 -18.0941 9.02909 -22.0218 -38.2405 -19.3412 17.3445 -18.4185 -40.523 -37.4487 0.0247944 4.28301 30.8503 11.0177 66.9707 83.051 0.045972 -0.0137992 -0.000959063 37.9386 28.008 73.698 26.2405 28.4472 13.118 18.2167 29.0248 19.6359 0 22.4358 32.6146 28.1246 -8.63175 30.7051 32.2053 23.7634 -7.83088 26.7354 35.1526 30.0193 -1.73246 -0.697194 0.122304 6.7156 -4.98444 0.664194 0 -1.90895 -0.696942 0.124455 7.03539 -5.12775 0.664323 0 
-0.101455 -0.0619756 0.0618965 5.03056e-013 -0.101178 0.0363773 -1.28482 -0.0939397 -0.0286974 -1.28482 0.0383749 -0.0277885 -1.28482 0.0460499 -0.0277885 0.698215 0.365316 0.0383749 0.0293401 -3.3682 30.4284 -11.7211 -67.8181 -82.3701 0.0518166 0.0225467 -0.000471676 -36.7832 -29.9624 77.4898 -4.76427 -12.2444 -6.63439 -16.4575 -31.3511 -13.5114 -0.647911 -24.507 -18.2419 -18.0941 9.02909 -22.0218 -38.2405 -19.3412 17.3445 -18.4185 -40.523 -37.4487 0.0247944 4.28301 30.8503 11.0177 66.9707 83.051 0.045972 -0.0137992 -0.000959063 37.9386 28.008 73.698 26.2405 28.4472 13.118 18.2167 29.0248 19.6359 0 22.4358 32.6146 28.1246 -8.63175 30.7051 32.2053 23.7634 -7.83088 26.7354 35.1526 30.0193 -1.73246 -0.697194 0.122304 6.7156 -4.98444 0.664194 0 -1.90895 -0.696942 0.124455 7.03539 -5.12775 0.664323 0 
